<svg width="1920" height="1080" viewBox="0 0 1920 1080" fill="none" xmlns="http://www.w3.org/2000/svg">
<g clip-path="url(#clip0_2_19)">
<path d="M111.014 5.01834L-1616.68 1001.33" stroke="#767A8A" stroke-width="2" stroke-miterlimit="10"/>
<path d="M186.861 5.01834L-1392.08 1001.33" stroke="#1C7354" stroke-width="2" stroke-miterlimit="10"/>
<path d="M262.708 5.01834L-1167.6 1001.33" stroke="#1C7354" stroke-width="2" stroke-miterlimit="10"/>
<path d="M338.432 5.01834L-943.126 1001.33" stroke="#1C7354" stroke-width="2" stroke-miterlimit="10"/>
<path d="M414.279 5.01834L-718.526 1001.33" stroke="#1C7354" stroke-width="2" stroke-miterlimit="10"/>
<path d="M490.004 5.01834L-494.17 1001.33" stroke="#1C7354" stroke-width="2" stroke-miterlimit="10"/>
<path d="M565.851 5.01834L-269.57 1001.33" stroke="#1C7354" stroke-width="2" stroke-miterlimit="10"/>
<path d="M641.698 5.01834L-45.0916 1001.33" stroke="#1C7354" stroke-width="2" stroke-miterlimit="10"/>
<path d="M717.423 5.01834L-160.884 1631.52" stroke="#1C7354" stroke-width="2" stroke-miterlimit="10"/>
<path d="M793.27 5.01834L94.2268 1794.01" stroke="#1C7354" stroke-width="2" stroke-miterlimit="10"/>
<path d="M868.995 5.01834L414.28 1888.13" stroke="#1C7354" stroke-width="2" stroke-miterlimit="10"/>
<path d="M944.841 5.01834L773.052 1867.61" stroke="#1C7354" stroke-width="2" stroke-miterlimit="10"/>
<path d="M1020.57 5.01834L1126.07 1854.45" stroke="#1C7354" stroke-width="2" stroke-miterlimit="10"/>
<path d="M1096.41 5.01834L1465.36 1793.89" stroke="#1C7354" stroke-width="2" stroke-miterlimit="10"/>
<path d="M1172.14 5.01834L1815.43 1814.19" stroke="#1C7354" stroke-width="2" stroke-miterlimit="10"/>
<path d="M1247.98 5.01834L2021.28 1536.84" stroke="#1C7354" stroke-width="2" stroke-miterlimit="10"/>
<path d="M1323.83 5.01834L1975.45 1001.33" stroke="#1C7354" stroke-width="2" stroke-miterlimit="10"/>
<path d="M1399.56 5.01834L2199.93 1001.33" stroke="#1C7354" stroke-width="2" stroke-miterlimit="10"/>
<path d="M1475.4 5.01834L2424.41 1001.33" stroke="#1C7354" stroke-width="2" stroke-miterlimit="10"/>
<path d="M1551.13 5.01834L2648.89 1001.33" stroke="#1C7354" stroke-width="2" stroke-miterlimit="10"/>
<path d="M1626.98 5.01834L2873.37 1001.33" stroke="#1C7354" stroke-width="2" stroke-miterlimit="10"/>
<path d="M1702.82 5.01834L3097.97 1001.33" stroke="#1C7354" stroke-width="2" stroke-miterlimit="10"/>
<path d="M1778.55 5.01834L3322.45 1001.33" stroke="#1C7354" stroke-width="2" stroke-miterlimit="10"/>
<path d="M1854.39 5.01834L3546.92 1001.33" stroke="#1C7354" stroke-width="2" stroke-miterlimit="10"/>
<path d="M2055.71 86.5387H-91.041" stroke="#1C7354" stroke-width="2" stroke-miterlimit="10"/>
<path d="M2055.71 190.028H-91.041" stroke="#1C7354" stroke-width="2" stroke-miterlimit="10"/>
<path d="M2055.71 254.486H-91.041" stroke="#1C7354" stroke-width="2" stroke-miterlimit="10"/>
<path d="M2055.71 323.851H-91.041" stroke="#1C7354" stroke-width="2" stroke-miterlimit="10"/>
<path d="M2055.71 402.472H-91.041" stroke="#1C7354" stroke-width="2" stroke-miterlimit="10"/>
<path d="M2055.71 492.356H-91.041" stroke="#1C7354" stroke-width="2" stroke-miterlimit="10"/>
<path d="M2055.71 592.5H-91.041" stroke="#1C7354" stroke-width="2" stroke-miterlimit="10"/>
<path d="M2055.71 815.092H-91.041" stroke="#1C7354" stroke-width="2" stroke-miterlimit="10"/>
<path d="M2055.71 944.454H-91.041" stroke="#1C7354" stroke-width="2" stroke-miterlimit="10"/>
<path d="M2055.71 5.01834H-91.041" stroke="#1C7354" stroke-width="2" stroke-miterlimit="10"/>
<path d="M2055.71 692.867H-91.041" stroke="#1C7354" stroke-width="2" stroke-miterlimit="10"/>
<path d="M2055.71 38.9201H-91.041" stroke="#1C7354" stroke-width="2" stroke-miterlimit="10"/>
<path d="M2055.71 135.942H-91.041" stroke="#1C7354" stroke-width="2" stroke-miterlimit="10"/>
</g>
<defs>
<clipPath id="clip0_2_19">
<rect width="1936" height="1762" fill="white"/>
</clipPath>
</defs>
</svg>
