<svg version="1.2" xmlns="http://www.w3.org/2000/svg" viewBox="0 0 274 128" width="274" height="128">
	<style>
		.s0 { fill: #ffffff;stroke: #000000;stroke-miterlimit:10;stroke-width: 2 } 
		.s1 { fill: #ffdc51 } 
		.s2 { fill: #5e2c00 } 
		.s3 { mix-blend-mode: multiply;fill: #ffdc51 } 
		.s4 { fill: #d0cdb0 } 
		.s5 { mix-blend-mode: screen;fill: #ffdc51 } 
	</style>
	<g id="Layer 1">
		<g id="&lt;Group&gt;">
			<g id="&lt;Group&gt;" style="mix-blend-mode: multiply">
			</g>
			<path id="&lt;Compound Path&gt;" class="s0" d="m243.35 2.1q-1.36 0-2.97 0.49c-4.48 0.92-6.36 6.28-7.28 8.91-0.72 2.06-5.1 10.73-12.09 18.95-5.99 7.04-15.5 15.57-26.8 16.19-21.78 1.19-98.16 5.07-121.05 6.24l-0.99 0.05c-0.48 0.02-4.87 0.26-10.13 1.97-6.14 1.98-11.06 5.2-14.4 9.4h-23.62q-1.01-0.39-2.12-0.4h-1.98l-5.86-5.48c-1.69-1.59-4.27-2.03-6.38-1.12-2.17 0.93-3.57 3.06-3.57 5.43v20.34c0 2.41 1.44 4.55 3.68 5.47 2.17 0.88 4.78 0.35 6.43-1.32l5.37-5.43 2.36-0.02q1.11-0.02 2.12-0.42l18.45-0.19c0.13 8.69 2.87 15.9 8.15 21.45 7.62 8.01 20.29 12.07 37.66 12.07q1.26 0.01 2.53-0.02h1.5c2.56 1.71 6.52 1.71 8.87 1.71 1.73 0 4.36 0 6.64-0.69 2.28 0.69 4.91 0.69 6.64 0.69 2.65 0 4.58-0.15 6.07-0.5 1.49 0.35 3.42 0.5 6.06 0.5 2.35 0 6.31 0 8.87-1.71h19.27q0.13-0.01 0.26-0.01c2-0.11 19.73-1.48 24.5-15.97 2.99-9.07 2.14-17.84-2.32-24.11 3.51 0.52 7.26 1.16 11.48 1.96 17.69 3.36 34.42 25.84 40.71 34.3q1.32 1.78 2.1 2.77c4.76 6 8.93 7.26 11.58 7.26q0.33 0 0.65-0.02c14.98-0.54 21.81-31.08 21.81-59.37 0-28.6-6.95-59.37-22.2-59.37zm-83.28 86.8v-6.79q0.44 0.26 0.68 0.45c3.47 2.77 3.18 7.32 3.11 8.04q-0.06 0.28-0.14 0.54-1.58-1.37-3.65-2.24zm-70.15-8.24v6.98h-6.82q-0.76-0.1-1.66-0.1c-1.97 0-6.94 0.37-10.69 3.73q-0.69 0.62-1.27 1.28-0.63-0.5-1.15-1.05c-2.26-2.41-3.18-5.78-2.9-10.59zm56.29-0.74v7.73h-8.27v-7.49l4.89-0.06q0.19 0 0.38-0.01 0.12-0.01 0.24-0.02c0.11-0.01 1.17-0.11 2.76-0.15z"/>
			<g id="&lt;Group&gt;">
				<g id="&lt;Group&gt;">
					<path id="&lt;Path&gt;" class="s1" d="m155.82 107.46h-38.32c-1.13 0-2.04-0.91-2.04-2.03 0-1.12 0.91-2.04 2.04-2.04h38.04q0.61-0.17 0.9-0.25c0.15-0.17 0.35-0.38 0.67-0.68 0.51-0.48 0.98-1.52 0.92-2.48-0.05-0.7-0.36-0.92-0.46-0.99-2.81-1.98-5.09-1.37-5.32-1.37h-31c-1.12 0-2.04-0.91-2.04-2.03 0-1.13 0.92-2.04 2.04-2.04h30.74c1.1-0.25 5.39-0.16 7.92 2.11 1.18 1.06 2.07 2.34 2.18 4.04 0.14 2.07-0.74 4.37-2.2 5.73q-0.31 0.31-0.46 0.47c-0.79 0.87-1.26 1-3 1.47-0.17 0.05-0.44 0.09-0.61 0.09z"/>
					<path id="&lt;Compound Path&gt;" class="s2" d="m155.82 108.52h-38.32c-1.71 0-3.1-1.38-3.1-3.09 0-1.71 1.39-3.1 3.1-3.1h37.89l0.48-0.13q0.19-0.21 0.52-0.52c0.27-0.25 0.62-1 0.58-1.63-0.01-0.17-0.04-0.23-0.04-0.23-2.07-1.44-3.86-1.24-4.39-1.16q-0.22 0.03-0.29 0.02h-31c-1.71 0-3.1-1.39-3.1-3.09 0-1.71 1.39-3.1 3.1-3.1h30.63c0.42-0.08 0.93-0.1 1.3-0.1 1.1 0 4.88 0.18 7.44 2.48 1.58 1.42 2.41 2.98 2.53 4.76 0.16 2.37-0.86 5.01-2.54 6.58q-0.27 0.26-0.4 0.41c-1 1.09-1.68 1.28-3.5 1.77-0.21 0.06-0.58 0.13-0.89 0.13zm-38.32-4.07c-0.54 0-0.98 0.44-0.98 0.98 0 0.54 0.44 0.98 0.98 0.98h38.32c0.05 0 0.21-0.03 0.33-0.06 1.72-0.47 1.93-0.54 2.5-1.17q0.17-0.19 0.51-0.51c1.23-1.15 1.99-3.16 1.87-4.89-0.08-1.23-0.66-2.28-1.82-3.33-1.6-1.43-4.16-1.94-6.03-1.94q-0.73 0.01-0.96 0.07-0.12 0.03-0.23 0.03h-30.74c-0.54 0-0.98 0.44-0.98 0.98 0 0.54 0.44 0.97 0.98 0.97h30.94c0.27-0.04 0.64-0.09 1.14-0.09 1.14 0 2.92 0.29 4.85 1.65 0.68 0.47 0.87 1.23 0.91 1.78 0.09 1.33-0.56 2.68-1.25 3.33-0.3 0.28-0.48 0.47-0.61 0.62q-0.2 0.22-0.48 0.3-0.16 0.05-0.42 0.13l-0.5 0.13q-0.14 0.05-0.29 0.04z"/>
				</g>
				<g id="&lt;Group&gt;">
					<path id="&lt;Compound Path&gt;" class="s1" d="m243.35 8.01c-0.65 0-1.62 0.37-1.62 0.37 0 0-1.14-0.37-3.05 5.07-1.75 5-18.99 37.71-44.15 39.09-25.15 1.37-122.09 6.29-122.09 6.29 0 0-15.66 0.7-21.68 11.38h-33.51l-6.59-6.17v17.72l6.16-6.24 32.07-0.34q-0.33 1.53-0.42 3.27c-0.94 18.8 11.07 30.98 42.34 30.3h63.91c0 0 15.56-0.83 19.21-11.92 3.65-11.09 1.83-26.65-21.81-26.62h-87.25c7.33-5.44 19.61-3.99 19.61-3.99 0 0 15.71-0.34 44.33 0 28.61 0.34 38.58 0.25 60.99 4.5 22.41 4.26 41.88 33.6 46.34 39.2 4.45 5.62 7.21 5.01 7.21 5.01 9 0 16.29-23.93 16.29-53.46 0-29.53-7.29-53.46-16.29-53.46zm-100.53 66.17c0 0 14.98-1.51 21.61 3.76 6.61 5.26 5.26 13.66 5.26 13.66-2.37 11.95-18.08 11.71-18.08 11.71 0 0-37.61-0.04-59.57 0-21.96 0.03-33.61-6.11-32.49-23.01 0.14-2.02 0.6-3.75 1.3-5.25z"/>
					<path id="&lt;Compound Path&gt;" class="s2" d="m243.09 116.01c-1.04 0-3.89-0.53-7.79-5.43q-0.74-0.94-1.99-2.64c-6.61-8.88-24.15-32.46-43.71-36.17-21.18-4.03-30.83-4.14-56.62-4.44l-4.19-0.05c-8.43-0.1-16.58-0.15-24.2-0.15-12.96 0-20.01 0.15-20.08 0.15q-0.08 0-0.15 0c-0.01-0.01-1.46-0.17-3.61-0.17-2.86 0-7.65 0.3-11.82 2.04h83.19c10.1 0 17.17 2.74 21.08 8.14 3.62 5 4.25 12.24 1.74 19.87-3.84 11.64-19.5 12.61-20.16 12.65h-63.97q-1.25 0.02-2.48 0.02c-15.99 0-27.48-3.55-34.15-10.56-4.92-5.18-7.2-12.2-6.77-20.88q0.06-1.09 0.21-2.14l-30.35 0.33-5.86 5.93c-0.3 0.31-0.76 0.4-1.16 0.23-0.39-0.16-0.65-0.55-0.65-0.98v-17.72c0-0.43 0.25-0.81 0.63-0.98 0.39-0.17 0.84-0.09 1.15 0.2l6.29 5.89h32.49c2.65-4.34 7.26-7.66 13.37-9.64 4.75-1.54 8.69-1.73 8.86-1.74 0.96-0.05 97.22-4.93 122.09-6.29 24.68-1.35 41.51-33.56 43.2-38.38 1.33-3.81 2.57-5.66 3.86-5.78 0.37-0.13 1.15-0.37 1.81-0.37 9.73 0 17.35 23.95 17.35 54.52 0 30.49-7.58 54.39-17.27 54.52q-0.13 0.02-0.34 0.02zm-138.5-51c7.63 0 15.78 0.05 24.23 0.15l4.19 0.05c25.19 0.29 35.62 0.41 56.99 4.47 20.37 3.87 38.27 27.93 45.01 36.99q1.24 1.69 1.96 2.59c3.49 4.41 5.71 4.63 6.12 4.63q0.05 0 0.08 0c0.07-0.02 0.09-0.02 0.18-0.02 7.35 0 15.23-21.05 15.23-52.4 0-31.35-7.88-52.4-15.23-52.4-0.31 0-0.92 0.18-1.24 0.3q-0.12 0.04-0.25 0.06c-0.22 0.18-1 1.02-2.18 4.38-1.75 4.99-19.25 38.37-45.09 39.79-24.87 1.35-121.13 6.24-122.1 6.29-0.16 0.01-15.15 0.81-20.8 10.84-0.19 0.34-0.54 0.54-0.93 0.54h-33.51q-0.42 0-0.72-0.28l-4.81-4.51v12.7l4.35-4.41c0.19-0.19 0.46-0.31 0.74-0.31l32.07-0.34c0.34-0.02 0.63 0.14 0.83 0.38 0.21 0.25 0.29 0.58 0.22 0.9q-0.32 1.48-0.4 3.1c-0.4 8.07 1.68 14.57 6.19 19.31 6.25 6.57 17.22 9.9 32.61 9.9q1.2 0 2.45-0.02h63.94c0.09-0.01 14.82-0.93 18.2-11.19 1.09-3.3 3.12-11.66-1.44-17.97-3.49-4.82-9.98-7.26-19.29-7.26h-87.32c-0.46 0-0.87-0.29-1.01-0.73-0.15-0.43 0-0.91 0.37-1.18 4.88-3.62 11.68-4.37 16.52-4.37 2.03 0 3.44 0.13 3.78 0.17 0.77-0.01 7.77-0.15 20.06-0.15zm47.09 39.36h-0.09c-0.17 0-37.65-0.04-59.55 0h-0.17c-14.35 0-23.45-2.58-28.63-8.1-3.65-3.91-5.2-9.15-4.75-16.04q0.21-3.09 1.4-5.63c0.18-0.37 0.55-0.6 0.95-0.61l81.92-0.87c0.33-0.03 2.24-0.2 4.9-0.2 5.55 0 13.08 0.73 17.43 4.18 7.02 5.59 5.7 14.3 5.65 14.67-2.43 12.25-17.37 12.6-19.06 12.6zm-90.13-28.27q-0.78 1.95-0.94 4.27c-0.41 6.27 0.95 11 4.18 14.45 4.69 5 13.54 7.43 27.08 7.43h0.17c21.96-0.04 59.57 0 59.57 0 1.6 0 14.95-0.31 17.04-10.86 0-0.04 1.15-7.83-4.88-12.62-4.08-3.24-11.84-3.73-16.11-3.73-2.75 0-4.72 0.2-4.73 0.2q-0.05 0-0.1 0z"/>
				</g>
				<path id="&lt;Compound Path&gt;" class="s3" d="m243.35 8.01c-0.65 0-1.62 0.37-1.62 0.37 0 0-1.14-0.37-3.05 5.07-1.75 5-18.99 37.71-44.15 39.09-13.33 0.72-46.85 2.45-75.4 3.91-11.24 2.5-22.93 2.34-34.3 4.08-10.24 1.56-25.75 3.82-29.42 15.4-1.8 5.67-0.56 11.44 2.16 16.61 1.06 2.01 2.55 4.04 3.32 6.19 0.26 0.72 0.35 1.38-0.01 2.08-0.35 0.69-1.11 0.98-1.98 1.07 6.83 4.68 17.26 7.19 31.91 6.87h63.91c0 0 15.56-0.83 19.21-11.92 3.65-11.09 1.83-26.65-21.81-26.62h-87.25c7.33-5.44 19.61-3.99 19.61-3.99 0 0 15.71-0.34 44.33 0 28.61 0.34 38.58 0.25 60.99 4.5 22.41 4.26 41.88 33.6 46.34 39.2 4.45 5.62 7.21 5.01 7.21 5.01 9 0 16.29-23.93 16.29-53.46 0-29.53-7.29-53.46-16.29-53.46zm-100.53 66.17c0 0 14.98-1.51 21.61 3.76 6.61 5.26 5.26 13.66 5.26 13.66-2.37 11.95-18.08 11.71-18.08 11.71 0 0-37.61-0.04-59.57 0-21.96 0.03-33.61-6.11-32.49-23.01 0.14-2.02 0.6-3.75 1.3-5.25zm107.83 9.27q-0.01 0.07-0.02 0.13c-0.08 0.59-0.98 0.42-1-0.13-0.23-10.06-0.73-20.13-3.38-29.84-0.17 5.68-0.71 11.38-1.54 16.97-1.08 7.35-5.46 31.51-17.51 20.65-5.53-4.98-8.94-11.68-15.03-16.13-5.99-4.36-12.62-7.48-19.78-9.39-6.95-1.87-14.36-3.47-21.59-3.56-4.77-0.06-10.54 0.52-14.86-1.94-0.4-0.23-0.28-0.79 0.13-0.93 7.1-2.38 15.16-0.9 22.53-1.52 9.02-0.75 17.93-1.93 26.6-4.59 7.07-2.17 12.97-6.29 17.81-11.85 4.09-4.71 7.57-9.9 11.39-14.83 1.32-2.74 3.09-6.08 5.97-7.32 2.83-1.21 5.49 1.7 6.84 3.8 4.95 7.74 5.03 17.87 5.38 26.76 0.44 11.29-0.34 22.54-1.94 33.71z"/>
				<g id="&lt;Group&gt;">
					<path id="&lt;Path&gt;" class="s1" d="m78.81 107.46h38.31c1.13 0 2.04-0.91 2.04-2.03 0-1.12-0.91-2.04-2.04-2.04q-6.24-0.01-12.48-0.01c-3.57 0-7.15 0.09-10.73 0.03-3.14-0.05-6.38-0.23-9.51-0.02-1.19 0.07-4.28 0.22-4.75 0.14-2.39-0.39-4.47-3.82-1.56-5.14 1.21-0.54 2.95-0.77 4.28-0.77h31c1.12 0 2.03-0.91 2.03-2.03 0-1.13-0.91-2.04-2.03-2.04h-30.74c-1.1-0.25-5.4-0.16-7.92 2.11-1.18 1.06-2.07 2.34-2.19 4.04-0.24 3.64 2.25 6.74 5.67 7.67 0.17 0.05 0.43 0.09 0.62 0.09z"/>
					<path id="&lt;Compound Path&gt;" class="s2" d="m117.12 108.52h-38.31c-0.32 0-0.68-0.06-0.91-0.13-3.99-1.09-6.7-4.77-6.43-8.76 0.12-1.78 0.94-3.34 2.53-4.76 2.56-2.3 6.34-2.48 7.44-2.48 0.37 0 0.88 0.02 1.3 0.1h30.63c1.71 0 3.09 1.39 3.09 3.1 0 1.7-1.38 3.09-3.09 3.09h-31c-1.42 0-2.93 0.27-3.85 0.68-0.79 0.36-0.82 0.81-0.78 1.11 0.11 0.88 1.12 1.86 2.08 2.02q0.1 0 0.39 0c1.06 0 3.21-0.1 4.12-0.16 1-0.07 2.09-0.1 3.33-0.1 1.3 0 2.62 0.04 3.9 0.07q1.19 0.03 2.37 0.05 3.3 0.04 6.6-0.01 2.06-0.02 4.11-0.02h0.59q2.98 0 5.95 0 2.97 0.01 5.94 0.01c1.71 0 3.1 1.39 3.1 3.1 0 1.71-1.39 3.09-3.1 3.09zm-35.68-14.01c-1.87 0-4.44 0.51-6.03 1.94-1.16 1.05-1.75 2.11-1.83 3.33-0.2 3.02 1.81 5.73 4.89 6.57 0.12 0.03 0.28 0.06 0.34 0.06h38.31c0.54 0 0.98-0.44 0.98-0.98 0-0.54-0.44-0.98-0.98-0.98q-2.97 0-5.94 0-2.98-0.01-5.95-0.01h-0.59q-2.04 0-4.09 0.02-3.33 0.05-6.66 0.01-1.18-0.02-2.39-0.05c-1.26-0.03-2.56-0.07-3.84-0.07q-1.77 0-3.2 0.09c-0.92 0.06-3.14 0.17-4.25 0.17-0.45 0-0.63-0.01-0.73-0.03-1.88-0.31-3.61-2.03-3.84-3.83-0.19-1.42 0.56-2.66 2.01-3.32 1.78-0.8 4.06-0.87 4.72-0.87h31c0.54 0 0.97-0.43 0.97-0.97 0-0.54-0.43-0.98-0.97-0.98h-30.74q-0.11 0-0.23-0.03-0.23-0.06-0.96-0.07z"/>
				</g>
				<g id="&lt;Group&gt;">
					<g id="&lt;Group&gt;">
						<path id="&lt;Path&gt;" class="s1" d="m95.83 69.35v40.44c0 0.37 2.42 0.67 5.4 0.67 2.97 0 5.39-0.3 5.39-0.67v-40.44z"/>
						<path id="&lt;Compound Path&gt;" class="s2" d="m101.23 111.52c-6.46 0-6.46-1-6.46-1.73v-40.44c0-0.59 0.48-1.06 1.06-1.06h10.79c0.58 0 1.06 0.47 1.06 1.06v40.44c0 0.73 0 1.73-6.45 1.73zm-4.34-2.41c0.69 0.14 2.14 0.29 4.34 0.29 2.2 0 3.64-0.15 4.33-0.29v-38.7h-8.67z"/>
					</g>
					<path id="&lt;Path&gt;" class="s3" d="m96.99 69.35h-1.16v40.44c0 0.15 0.44 0.3 1.16 0.41z"/>
					<path id="&lt;Path&gt;" class="s3" d="m101.8 69.35v41.11c2.71-0.04 4.82-0.32 4.82-0.67v-40.44z"/>
					<g id="&lt;Group&gt;">
						<path id="&lt;Path&gt;" class="s1" d="m106.62 69.35c0 0.37-2.42 0.67-5.39 0.67-2.98 0-5.4-0.3-5.4-0.67 0-0.37 2.42-0.68 5.4-0.68 2.97 0 5.39 0.31 5.39 0.68z"/>
						<path id="&lt;Path&gt;" class="s2" d="m101.23 71.08c-6.46 0-6.46-1-6.46-1.73 0-0.73 0-1.74 6.46-1.74 6.45 0 6.45 1.01 6.45 1.74 0 0.73 0 1.73-6.45 1.73z"/>
					</g>
					<g id="&lt;Group&gt;">
						<path id="&lt;Path&gt;" class="s1" d="m101.23 69.93c-0.32 0-0.58-0.26-0.58-0.58v-5.88c0-0.32 0.26-0.58 0.58-0.58 0.31 0 0.57 0.26 0.57 0.58v5.88c0 0.32-0.26 0.58-0.57 0.58z"/>
						<path id="&lt;Path&gt;" class="s2" d="m101.23 70.99c-0.91 0-1.64-0.74-1.64-1.64v-5.88c0-0.91 0.73-1.64 1.64-1.64 0.9 0 1.63 0.73 1.63 1.64v5.88c0 0.9-0.73 1.64-1.63 1.64z"/>
					</g>
					<g id="&lt;Group&gt;">
						<g id="&lt;Group&gt;">
							<path id="&lt;Path&gt;" class="s1" d="m98 62.27v1.36c0 0 0 0.16 0 0.23 0 0.44 1.45 0.8 3.23 0.8 1.78 0 3.22-0.36 3.22-0.8v-1.59z"/>
							<path id="&lt;Compound Path&gt;" class="s2" d="m101.23 65.72c-1.96 0-4.29-0.32-4.29-1.86v-1.59c0-0.58 0.47-1.06 1.06-1.06h6.45c0.59 0 1.06 0.48 1.06 1.06v1.59c0 1.54-2.33 1.86-4.28 1.86zm-2.17-2.36c0.39 0.11 1.12 0.24 2.17 0.24 1.04 0 1.78-0.13 2.16-0.24v-0.03z"/>
						</g>
						<g id="&lt;Group&gt;">
							<path id="&lt;Path&gt;" class="s1" d="m104.45 62.27c0 0.44-1.44 0.79-3.22 0.79-1.78 0-3.23-0.35-3.23-0.79 0-0.43 1.45-0.79 3.23-0.79 1.78 0 3.22 0.36 3.22 0.79z"/>
							<path id="&lt;Path&gt;" class="s2" d="m101.23 64.13c-1.96 0-4.29-0.33-4.29-1.86 0-1.53 2.33-1.85 4.29-1.85 1.95 0 4.28 0.32 4.28 1.85 0 1.53-2.33 1.86-4.28 1.86z"/>
						</g>
					</g>
				</g>
				<g id="&lt;Group&gt;">
					<g id="&lt;Group&gt;">
						<path id="&lt;Path&gt;" class="s1" d="m109.12 69.35v40.44c0 0.37 2.42 0.67 5.39 0.67 2.98 0 5.39-0.3 5.39-0.67v-40.44z"/>
						<path id="&lt;Compound Path&gt;" class="s2" d="m114.51 111.52c-6.45 0-6.45-1-6.45-1.73v-40.44c0-0.59 0.48-1.06 1.06-1.06h10.78c0.59 0 1.06 0.47 1.06 1.06v40.44c0 0.73 0 1.73-6.45 1.73zm-4.33-2.41c0.69 0.14 2.13 0.29 4.33 0.29 2.2 0 3.64-0.15 4.33-0.29v-38.7h-8.66z"/>
					</g>
					<path id="&lt;Path&gt;" class="s3" d="m110.28 69.35h-1.16v40.44c0 0.15 0.43 0.3 1.16 0.41z"/>
					<path id="&lt;Path&gt;" class="s3" d="m115.09 69.35v41.11c2.7-0.04 4.81-0.32 4.81-0.67v-40.44z"/>
					<g id="&lt;Group&gt;">
						<path id="&lt;Path&gt;" class="s1" d="m119.9 69.35c0 0.37-2.41 0.67-5.39 0.67-2.97 0-5.39-0.3-5.39-0.67 0-0.37 2.42-0.68 5.39-0.68 2.98 0 5.39 0.31 5.39 0.68z"/>
						<path id="&lt;Path&gt;" class="s2" d="m114.51 71.08c-6.45 0-6.45-1-6.45-1.73 0-0.73 0-1.74 6.45-1.74 6.45 0 6.45 1.01 6.45 1.74 0 0.73 0 1.73-6.45 1.73z"/>
					</g>
					<g id="&lt;Group&gt;">
						<path id="&lt;Path&gt;" class="s1" d="m114.51 69.93c-0.32 0-0.57-0.26-0.57-0.58v-5.88c0-0.32 0.25-0.58 0.57-0.58 0.32 0 0.58 0.26 0.58 0.58v5.88c0 0.32-0.26 0.58-0.58 0.58z"/>
						<path id="&lt;Path&gt;" class="s2" d="m114.51 70.99c-0.9 0-1.64-0.74-1.64-1.64v-5.88c0-0.91 0.74-1.64 1.64-1.64 0.9 0 1.64 0.73 1.64 1.64v5.88c0 0.9-0.74 1.64-1.64 1.64z"/>
					</g>
					<g id="&lt;Group&gt;">
						<g id="&lt;Group&gt;">
							<path id="&lt;Path&gt;" class="s1" d="m111.29 62.27v1.36c0 0 0 0.16 0 0.23 0 0.44 1.44 0.8 3.22 0.8 1.78 0 3.23-0.36 3.23-0.8v-1.59z"/>
							<path id="&lt;Compound Path&gt;" class="s2" d="m114.51 65.72c-1.95 0-4.28-0.32-4.28-1.86v-1.59c0-0.58 0.47-1.06 1.06-1.06h6.45c0.58 0 1.06 0.48 1.06 1.06v1.59c0 1.54-2.33 1.86-4.29 1.86zm-2.16-2.36c0.38 0.11 1.12 0.24 2.16 0.24 1.04 0 1.78-0.13 2.16-0.24v-0.03z"/>
						</g>
						<g id="&lt;Group&gt;">
							<path id="&lt;Path&gt;" class="s1" d="m117.74 62.27c0 0.44-1.45 0.79-3.23 0.79-1.78 0-3.22-0.35-3.22-0.79 0-0.43 1.44-0.79 3.22-0.79 1.78 0 3.23 0.36 3.23 0.79z"/>
							<path id="&lt;Path&gt;" class="s2" d="m114.51 64.13c-1.95 0-4.28-0.33-4.28-1.86 0-1.53 2.33-1.85 4.28-1.85 1.96 0 4.29 0.32 4.29 1.85 0 1.53-2.33 1.86-4.29 1.86z"/>
						</g>
					</g>
				</g>
				<g id="&lt;Group&gt;">
					<g id="&lt;Group&gt;">
						<path id="&lt;Path&gt;" class="s1" d="m121.25 69.35v40.44c0 0.37 2.42 0.67 5.39 0.67 2.98 0 5.39-0.3 5.39-0.67v-40.44z"/>
						<path id="&lt;Compound Path&gt;" class="s2" d="m126.64 111.52c-6.45 0-6.45-1-6.45-1.73v-40.44c0-0.59 0.47-1.06 1.06-1.06h10.78c0.59 0 1.06 0.47 1.06 1.06v40.44c0 0.73 0 1.73-6.45 1.73zm-4.33-2.41c0.69 0.14 2.13 0.29 4.33 0.29 2.2 0 3.65-0.15 4.33-0.29v-38.7h-8.66z"/>
					</g>
					<path id="&lt;Path&gt;" class="s3" d="m122.41 69.35h-1.16v40.44c0 0.15 0.43 0.3 1.16 0.41z"/>
					<path id="&lt;Path&gt;" class="s3" d="m127.22 69.35v41.11c2.7-0.04 4.81-0.32 4.81-0.67v-40.44z"/>
					<g id="&lt;Group&gt;">
						<path id="&lt;Path&gt;" class="s1" d="m132.03 69.35c0 0.37-2.41 0.67-5.39 0.67-2.97 0-5.39-0.3-5.39-0.67 0-0.37 2.42-0.68 5.39-0.68 2.98 0 5.39 0.31 5.39 0.68z"/>
						<path id="&lt;Path&gt;" class="s2" d="m126.64 71.08c-6.45 0-6.45-1-6.45-1.73 0-0.73 0-1.74 6.45-1.74 6.45 0 6.45 1.01 6.45 1.74 0 0.73 0 1.73-6.45 1.73z"/>
					</g>
					<g id="&lt;Group&gt;">
						<path id="&lt;Path&gt;" class="s1" d="m126.64 69.93c-0.32 0-0.58-0.26-0.58-0.58v-5.88c0-0.32 0.26-0.58 0.58-0.58 0.32 0 0.58 0.26 0.58 0.58v5.88c0 0.32-0.26 0.58-0.58 0.58z"/>
						<path id="&lt;Path&gt;" class="s2" d="m126.64 70.99c-0.9 0-1.64-0.74-1.64-1.64v-5.88c0-0.91 0.74-1.64 1.64-1.64 0.9 0 1.64 0.73 1.64 1.64v5.88c0 0.9-0.74 1.64-1.64 1.64z"/>
					</g>
					<g id="&lt;Group&gt;">
						<g id="&lt;Group&gt;">
							<path id="&lt;Path&gt;" class="s1" d="m123.41 62.27v1.36c0 0 0 0.16 0 0.23 0 0.44 1.45 0.8 3.23 0.8 1.78 0 3.23-0.36 3.23-0.8v-1.59z"/>
							<path id="&lt;Compound Path&gt;" class="s2" d="m126.64 65.72c-1.95 0-4.29-0.32-4.29-1.86v-1.59c0-0.58 0.48-1.06 1.06-1.06h6.46c0.58 0 1.06 0.48 1.06 1.06v1.59c0 1.54-2.33 1.86-4.29 1.86zm-2.16-2.36c0.38 0.11 1.12 0.24 2.16 0.24 1.04 0 1.78-0.13 2.17-0.24v-0.03z"/>
						</g>
						<g id="&lt;Group&gt;">
							<path id="&lt;Path&gt;" class="s1" d="m129.87 62.27c0 0.44-1.45 0.79-3.23 0.79-1.78 0-3.23-0.35-3.23-0.79 0-0.43 1.45-0.79 3.23-0.79 1.78 0 3.23 0.36 3.23 0.79z"/>
							<path id="&lt;Path&gt;" class="s2" d="m126.64 64.13c-1.95 0-4.29-0.33-4.29-1.86 0-1.53 2.34-1.85 4.29-1.85 1.96 0 4.29 0.32 4.29 1.85 0 1.53-2.33 1.86-4.29 1.86z"/>
						</g>
					</g>
				</g>
				<g id="&lt;Group&gt;">
					<path id="&lt;Path&gt;" class="s1" d="m142.82 74.18c0 0 5.68-0.57 11.59 0.22v-4.14q-1.11-0.05-2.29-0.05h-134.87l-6.59-6.17v17.72l6.16-6.24z"/>
					<path id="&lt;Compound Path&gt;" class="s2" d="m10.66 82.82q-0.21 0-0.41-0.08c-0.39-0.16-0.65-0.55-0.65-0.98v-17.72c0-0.43 0.25-0.81 0.63-0.98 0.39-0.17 0.84-0.09 1.15 0.2l6.29 5.89h134.45q1.14 0 2.34 0.05c0.57 0.03 1.01 0.5 1.01 1.06v4.14c0 0.3-0.13 0.6-0.36 0.8-0.23 0.2-0.53 0.3-0.84 0.25q-3.05-0.41-6.61-0.41c-2.75 0-4.72 0.2-4.73 0.2q-0.05 0-0.1 0l-125.56 1.34-5.86 5.93c-0.2 0.2-0.47 0.31-0.75 0.31zm1.06-16.34v12.7l4.35-4.41c0.19-0.19 0.46-0.31 0.74-0.31l125.95-1.34c0.34-0.03 2.24-0.2 4.9-0.2q3.01 0 5.69 0.28v-1.91q-0.62-0.02-1.23-0.02h-134.87q-0.42 0-0.72-0.28z"/>
				</g>
				<g id="&lt;Group&gt;">
					<path id="&lt;Path&gt;" class="s1" d="m153.14 105.86c-0.56 0-1.02-0.46-1.02-1.02v-31.93c0-0.57 0.46-1.02 1.02-1.02 0.56 0 1.02 0.45 1.02 1.02v31.93c0 0.56-0.46 1.02-1.02 1.02z"/>
					<path id="&lt;Path&gt;" class="s2" d="m153.14 106.91c-1.15 0-2.08-0.93-2.08-2.07v-31.93c0-1.15 0.93-2.08 2.08-2.08 1.15 0 2.08 0.93 2.08 2.08v31.93c0 1.14-0.93 2.07-2.08 2.07z"/>
				</g>
				<g id="&lt;Group&gt;">
					<path id="&lt;Path&gt;" class="s4" d="m21.9 69.82h-4.31l-7.57-7.09v20.34l7.07-7.16 4.81-0.05z"/>
					<path id="&lt;Compound Path&gt;" class="s2" d="m10.02 84.13q-0.21 0-0.4-0.08c-0.4-0.16-0.66-0.55-0.66-0.98v-20.34c0-0.42 0.25-0.81 0.64-0.97 0.38-0.17 0.84-0.1 1.14 0.19l7.27 6.8h3.89c0.59 0 1.06 0.48 1.06 1.07v6.04c0 0.58-0.47 1.05-1.05 1.06l-4.37 0.04-6.77 6.85c-0.2 0.21-0.47 0.32-0.75 0.32zm1.06-18.95v15.31l5.26-5.33c0.2-0.2 0.46-0.31 0.74-0.31l3.76-0.04v-3.93h-3.25q-0.42-0.01-0.73-0.29z"/>
				</g>
				<path id="&lt;Path&gt;" class="s5" d="m145.59 72.4h-120.85v-1.02h120.85z"/>
				<path id="&lt;Path&gt;" class="s5" d="m98.51 107.24h-1.02v-27.58h1.02z"/>
				<path id="&lt;Path&gt;" class="s5" d="m112.66 107.24h-1.02v-27.58h1.02z"/>
				<path id="&lt;Path&gt;" class="s5" d="m124.96 107.24h-1.02v-27.58h1.02z"/>
				<path id="&lt;Path&gt;" class="s5" d="m241.99 22.26c0 0 6.6 0.85 8.65 17.49 2.06 16.63 0 34.62 0 34.62 0 0 1.26-26.3-3.87-35.81-5.12-9.51-0.2 23.25-6.48 29.19-6.28 5.94-0.51-16.8-7.47-16.63-6.96 0.17-15.61 10.69-45.99 7.81 0 0 17.31 0.67 33.77-10.61 16.47-11.29 21.39-26.06 21.39-26.06z"/>
			</g>
		</g>
	</g>
</svg>