<?xml version="1.0" standalone="no"?>
<svg xmlns="http://www.w3.org/2000/svg" height="1018pt" preserveAspectRatio="xMidYMid meet" viewBox="0 0 1920 1018" width="1920pt">
  <path d="m5710 10158c-27-19-113-176-494-898-254-481-466-883-472-893-10-17-18-9-76 65-329 424-608 949-724 1366-20 70-40 139-46 155-18 48-95 49-116 2-16-34 12-155 76-340 155-449 425-923 766-1345 19-25 36-49 36-55 0-11-307-595-319-608-4-4-50 39-102 95-489 531-829 1089-1025 1683-29 88-62 205-73 260-15 74-26 105-42 118-30 24-56 21-85-8-30-30-29-42 16-225 158-634 556-1319 1123-1933l119-128-163-309c-90-171-166-310-169-310s-20 26-39 57c-88 145-222 261-422 368-103 55-120 68-193 150-395 449-726 1016-906 1553-46 141-105 370-115 456-5 37-15 66-27 78-26 26-76 20-100-12-17-24-18-30-3-115 102-596 429-1276 897-1864 89-111 96-123 71-118-15 4-83 12-150 19-314 31-650-56-875-227l-46-36-100 148c-374 557-632 1202-691 1729-7 62-14 82-31 96-31 25-62 22-89-6-23-24-23-27-12-123 66-560 359-1275 752-1830l79-113-35-48c-46-64-84-151-101-232-95-446 314-886 921-990 133-23 321-26 440-9l76 12 162-110c1045-709 2403-1215 4032-1502 358-63 565-92 1515-211 2409-302 3190-416 4180-611 581-115 1425-317 1379-330-235-69-342-117-457-204l-73-56-227 50c-731 160-1508 288-2527 415-633 79-1266 148-2790 301-1166 117-1393 145-1905 230-1507 251-2745 673-3810 1300-121 71-464 302-595 400-384 288-755 644-1028 988-534 670-885 1489-947 2207-13 148-24 170-80 170-63 0-74-69-46-286 92-691 400-1416 871-2049 260-351 636-736 1005-1030 1303-1039 3174-1700 5555-1964 186-21 505-54 1370-141 2645-267 3697-413 5002-694l52-11-31-49c-69-112-104-245-93-362 28-309 302-555 702-630 115-21 321-21 438 1 365 67 621 245 751 523 5 10 556-213 781-317 968-444 1799-1002 2545-1710 102-96 122-111 151-111 40 0 67 25 67 62 0 28-141 171-365 369-858 758-1814 1329-2965 1772l-165 63-3 53c-2 41 33 246 53 308 8 25 615-232 990-419 775-388 1503-886 2103-1439 68-63 155-143 193-178 74-68 104-78 139-46 12 11 20 31 20 49 0 26-15 45-97 124-877 839-1896 1485-3103 1967-107 43-199 81-204 86-5 4 9 92 34 207l43 200 121-50c759-313 1502-731 2122-1196 310-231 517-405 811-679 87-81 151-133 163-133 27 0 70 43 70 70s-53 83-225 240c-561 512-1133 923-1800 1295-293 163-775 394-1105 530-63 26-118 49-122 51-3 2 2 41 12 86 10 46 23 109 29 140l12 57 82-35c327-140 739-339 1002-484 724-401 1311-827 1907-1383 93-86 121-107 145-107 51 0 79 52 53 99-11 22-280 270-440 407-781 669-1707 1227-2717 1638-2 1 49 240 52 244 5 6 316-134 540-243 900-436 1705-989 2407-1653 94-88 121-99 158-62 11 11 20 33 20 49 0 25-21 49-132 154-571 536-1177 977-1903 1382-200 112-637 328-862 426-123 54-192 89-193 99 0 8 77 370 171 805 118 545 169 801 165 825-7 49-51 85-121 101-48 11-60 10-90-4-19-9-41-27-49-39-13-20-346-1533-346-1573 0-8-2-15-4-15s-57 21-123 46c-822 318-1906 623-3173 893-157 34-295 63-307 66s-20 11-18 18c3 6 90 417 194 913 104 495 193 909 199 920 11 18 195 885 190 890-6 5-3527 348-3531 344-3-3-116-534-252-1180s-248-1176-249-1177c-4-4-257 73-456 139-614 202-1227 470-1722 754l-187 107 67 40c337 202 433 446 281 712-22 39-79 116-125 170-113 132-188 237-263 367-224 391-378 931-438 1534-16 163-16 176 0 209 37 77 12 151-59 181-47 20-76 17-114-8zm-424-1690c150-239 402-616 522-781 121-166 136-204 130-328-2-49-9-94-14-99-7-7-52 20-140 86-264 197-572 471-779 691l-95 101 132 251c73 138 134 251 135 251s50-78 109-172zm-95-804c195-178 331-292 515-430l154-116-42-61c-67-98-327-357-360-357-14 0-253 165-413 285-160 119-348 274-453 371l-64 59 158 299 157 299 102-109c56-60 167-168 246-240zm5639-420c817-80 1486-147 1487-148 3-3-377-1810-382-1814-2-2-196 35-432 82-235 47-720 142-1078 211-727 141-926 181-1130 230-272 65-320 77-327 84-6 5 291 1453 307 1499 3 9 16 11 37 8 18-3 701-71 1518-152zm-6015-255c920-731 2108-1277 3561-1634 100-25 189-45 198-45s16-4 16-9c0-12-23-115-26-120-2-2-25 12-51 32-70 51-177 102-279 133-119 36-343 45-478 20-154-29-297-90-411-176l-50-37-120 34c-985 278-1843 650-2562 1110-132 84-402 274-465 326l-26 22 170 322 170 322 116-102c64-56 171-145 237-198zm1467-147c624-381 1377-710 2198-958 118-36 215-66 216-67 4-4-74-369-80-375-4-3-109 19-234 51-1045 260-1931 611-2704 1071l-187 111 116 23c148 30 393 100 503 145 47 19 91 35 97 36 7 1 41-16 75-37zm-2033-465c734-527 1688-974 2701-1267 118-34 221-63 227-66 9-2 2-23-21-66-47-86-66-158-66-249 0-128 49-249 138-341 20-21 33-38 29-38-3 0-102 20-219 44-1398 292-2596 760-3512 1372l-110 74 34 12c72 24 209 101 276 153 119 94 219 232 253 350 7 22 26 68 44 102l32 62 34-26c19-15 90-67 160-116zm5161-735c124-28 506-105 850-172 811-157 1644-321 1647-324 2-1-11-65-27-142-17-76-30-142-30-146 0-15-18-7-91 41-90 60-171 95-287 123-111 28-337 30-451 5l-73-16-857 149c-972 170-1181 208-1227 224-8 3-3 44 16 133 16 70 33 153 39 184l12 56 127-33c70-18 228-55 352-82zm-371-432c113-22 530-96 926-165s727-126 735-128c9-1-11-20-45-44-78-53-174-154-214-225-29-51-35-57-59-52-15 3-388 60-829 127-441 68-804 125-807 127-5 6 76 400 82 400 3 0 97-18 211-40zm3541-206c955-206 1716-409 2435-649 244-82 732-259 744-271 4-4-1-30-35-185l-15-66-127 49c-150 57-594 208-807 273-677 208-1403 387-2329 575-192 39-352 73-355 75-4 4 42 246 54 282 3 8 20 8 67-3 35-7 200-43 368-80zm-3046-414c435-66 801-123 814-125 20-5 22-11 22-68 0-127 52-253 143-349 56-58 151-127 220-158 23-11 33-18 22-15-28 6-910 119-1793 229l-743 92 58 24c151 61 299 177 374 294 22 32 49 90 61 127 12 38 24 69 26 69 3 0 361-54 796-120zm2871 10c1231-248 2302-538 3124-846 80-30 146-56 148-57 1-2-11-65-27-141-17-75-30-139-30-141s-30 7-67 21c-840 318-2024 619-3459 879l-92 17 9 36c5 20 9 59 9 85 0 40 21 159 35 205 3 7 14 10 27 7s158-32 323-65zm-132-455c1269-235 2219-475 3097-782 118-42 216-77 218-78 3-2-74-365-84-397-4-15-27-10-192 47-271 94-738 229-1142 329-792 198-1663 360-2860 534l-55 8 60 8c229 30 469 161 590 321 27 36 54 65 59 65s144-25 309-55z" transform="matrix(.1 0 0 -.1 0 1018)" fill="#ffffffff" stroke="none" stroke-width="2" vector-effect="non-scaling-stroke"/>
</svg>
